<?xml version="1.0" encoding="utf-8"?>
<!-- Generator: Adobe Illustrator 25.1.0, SVG Export Plug-In . SVG Version: 6.00 Build 0)  -->
<svg version="1.1"
	 id="svg8" inkscape:version="1.0.2-2 (e86c870879, 2021-01-15)" sodipodi:docname="moonface-ico.svg" xmlns:cc="http://creativecommons.org/ns#" xmlns:dc="http://purl.org/dc/elements/1.1/" xmlns:inkscape="http://www.inkscape.org/namespaces/inkscape" xmlns:rdf="http://www.w3.org/1999/02/22-rdf-syntax-ns#" xmlns:sodipodi="http://sodipodi.sourceforge.net/DTD/sodipodi-0.dtd" xmlns:svg="http://www.w3.org/2000/svg"
	 xmlns="http://www.w3.org/2000/svg" xmlns:xlink="http://www.w3.org/1999/xlink" x="0px" y="0px" viewBox="0 0 3599.8 3599.7"
	 style="enable-background:new 0 0 3599.8 3599.7;" xml:space="preserve">
<style type="text/css">
	.c1ebb4933e06ce561{fill: #374151;}
</style>
<sodipodi:namedview  bordercolor="#666666" borderopacity="1.0" fit-margin-bottom="0" fit-margin-left="0" fit-margin-right="0" fit-margin-top="0" id="base" inkscape:current-layer="layer1" inkscape:cx="2399.8664" inkscape:cy="5665.471" inkscape:document-rotation="0" inkscape:document-units="mm" inkscape:pageopacity="0.0" inkscape:pageshadow="2" inkscape:window-height="960" inkscape:window-maximized="0" inkscape:window-width="1346" inkscape:window-x="141" inkscape:window-y="0" inkscape:zoom="0.15167906" pagecolor="#ffffff" showgrid="false">
	</sodipodi:namedview>
<g id="layer1" transform="translate(728.59249,525.34254)" inkscape:groupmode="layer" inkscape:label="Layer 1">
	<path id="path24" class="c1ebb4933e06ce561" d="M1056.9,3074.3c-254.7-2-504.3-57.2-734.3-162.6c-32.3-14.8-67.4-32.2-98.8-49
		c-261.9-140.1-486.1-343.6-651.2-591.2c-52.6-78.8-99.3-162.6-138.5-248.3c-67.6-147.6-114.6-302.9-140.1-463
		c-13.1-82.1-20.3-162.7-22.2-249c-0.6-25.8-0.3-68.2,0.6-96.6c7.8-239.8,62.7-473.1,162.2-690.2c14.3-31.2,31.9-66.7,48.4-97.6
		c147-274.9,363.6-507.8,627.4-674.7c67.7-42.8,139.5-81.8,212-115c154.6-70.8,317.6-119,485.8-143.6
		c67.1-9.8,135.6-15.9,203.4-18.1c38.1-1.2,81.2-1.2,119.3,0c239.9,7.7,474.9,63.1,691.8,162.9c5.9,2.7,12.6,5.8,15,7l4.3,2.1
		l0.1,170.4l0.1,170.4l-257,0.1l-257,0.1l-0.1,257.3l-0.1,257.3l-257,0.1l-257,0.1l-0.1,257l-0.1,257H557.1H300.1v257.3v257.3h256.9
		H814l0.1,257l0.1,257l257,0.1l257,0.1l0.1,257.3l0.1,257.3l257,0.1l257,0.1l-0.1,170.4l-0.1,170.4l-4.6,2.2
		c-2.5,1.2-9.7,4.5-16,7.4c-147.4,67.7-303.9,115.2-464.4,140.8c-82.4,13.1-166.5,20.6-249.6,22.2
		C1093.4,3074.3,1068.8,3074.4,1056.9,3074.3L1056.9,3074.3z M1992.8,2560.2l-150.2-0.1V2303v-257.2h257.1h257.1l0.2,198.7
		c0.2,196.4,0.1,315.1-0.2,315.6c-0.1,0.2-28.6,0.3-107,0.2C2191.1,2560.3,2075.4,2560.3,1992.8,2560.2L1992.8,2560.2z M2467,2045.4
		l-109.6-0.1v-256.8v-256.8l246.7-0.1c135.7-0.1,251.2-0.1,256.9,0l10.2,0.1l0.1,256.6c0,205.2,0,256.6-0.2,256.7
		C2870.5,2045.4,2592.1,2045.5,2467,2045.4L2467,2045.4z M814.5,1274.5v-256.8h256.8h256.8v256.8v256.8h-256.8H814.5V1274.5z
		 M1842.6,1274.5v-256.8h257.2h257.2v256.8v256.8h-257.2h-257.2V1274.5z M2459,1017.3l-101.6-0.1V760.5V503.7l159.3-0.1
		c87.6-0.1,203.2-0.1,256.9,0l97.6,0.1l0.1,256.5c0,179,0,256.6-0.2,256.8C2870.7,1017.3,2682.9,1017.4,2459,1017.3L2459,1017.3z
		 M1328.5,760.4V503.6h256.8h256.8v256.8v256.8h-256.8h-256.8V760.4z M1842.5,502.8c-0.1-0.2-0.1-115.9-0.1-257.2l0.1-256.9h257.2
		h257.2l0.1,257.2l0.1,257.2h-257.2C1894.2,503.1,1842.6,503.1,1842.5,502.8L1842.5,502.8z"/>
</g>
</svg>
